<svg version="1.1" xmlns="http://www.w3.org/2000/svg" viewBox="0 0 194.08839918728563 320.3530315250714" width="194.08839918728563" height="320.3530315250714">
  <!-- svg-source:excalidraw -->
  
  <defs>
    <style class="style-fonts">
      @font-face {
        font-family: "Virgil";
        src: url("https://excalidraw.com/Virgil.woff2");
      }
      @font-face {
        font-family: "Cascadia";
        src: url("https://excalidraw.com/Cascadia.woff2");
      }
      @font-face {
        font-family: "Assistant";
        src: url("https://excalidraw.com/Assistant-Regular.woff2");
      }
    </style>
    
  </defs>
  <rect x="0" y="0" width="194.08839918728563" height="320.3530315250714" fill="#0000"></rect><g stroke-linecap="round" transform="translate(-52.55660815663282 74.13727199853832) rotate(90.38563845658585 149.60080775027564 86.0392437639974)"><path d="M32 0 C81.56 -0.83, 127.82 1.79, 267.2 0 M32 0 C110.84 -1.68, 188.31 -1.59, 267.2 0 M267.2 0 C287.1 -1.83, 297.94 11.9, 299.2 32 M267.2 0 C289.83 1.62, 297.1 8.81, 299.2 32 M299.2 32 C300.99 67.31, 302.06 104.25, 299.2 140.08 M299.2 32 C300.41 55.58, 299.18 77.48, 299.2 140.08 M299.2 140.08 C298.51 160.03, 290 170.37, 267.2 172.08 M299.2 140.08 C297.44 160.16, 290.13 170.89, 267.2 172.08 M267.2 172.08 C199.8 173.73, 132.05 174.13, 32 172.08 M267.2 172.08 C201.81 172.19, 137.82 172.21, 32 172.08 M32 172.08 C8.89 171.78, -1.93 159.77, 0 140.08 M32 172.08 C11.93 171.94, -1.87 159.37, 0 140.08 M0 140.08 C-1.33 109.69, 0.19 78.37, 0 32 M0 140.08 C-0.36 107.61, 0.2 73.67, 0 32 M0 32 C-1.18 9.02, 11.13 -0.11, 32 0 M0 32 C0.52 9.75, 9.78 -1.95, 32 0" stroke="transparent" stroke-width="2" fill="none"></path></g></svg>